<svg width="23" height="34" viewBox="0 0 23 34" fill="none" xmlns="http://www.w3.org/2000/svg">
<path d="M11.4 17C9.9148 17 8.49042 17.59 7.44022 18.6402C6.39001 19.6904 5.80001 21.1147 5.80001 22.6C5.80001 24.0852 6.39001 25.5095 7.44022 26.5597C8.49042 27.61 9.9148 28.2 11.4 28.2C12.8852 28.2 14.3096 27.61 15.3598 26.5597C16.41 25.5095 17 24.0852 17 22.6C17 21.1147 16.41 19.6904 15.3598 18.6402C14.3096 17.59 12.8852 17 11.4 17ZM0.200012 22.6C0.200012 19.6295 1.38001 16.7808 3.48042 14.6804C5.58082 12.5799 8.42959 11.4 11.4 11.4C14.3704 11.4 17.2192 12.5799 19.3196 14.6804C21.42 16.7808 22.6 19.6295 22.6 22.6C22.6 25.5704 21.42 28.4191 19.3196 30.5195C17.2192 32.62 14.3704 33.7999 11.4 33.7999C8.42959 33.7999 5.58082 32.62 3.48042 30.5195C1.38001 28.4191 0.200012 25.5704 0.200012 22.6ZM15.6 4.39995C15.6 5.51386 15.1575 6.58215 14.3699 7.3698C13.5822 8.15745 12.5139 8.59995 11.4 8.59995C10.2861 8.59995 9.21782 8.15745 8.43016 7.3698C7.64251 6.58215 7.20001 5.51386 7.20001 4.39995C7.20001 3.28604 7.64251 2.21775 8.43016 1.4301C9.21782 0.642449 10.2861 0.199951 11.4 0.199951C12.5139 0.199951 13.5822 0.642449 14.3699 1.4301C15.1575 2.21775 15.6 3.28604 15.6 4.39995Z" fill="#D46240"/>
</svg>
